<svg width="60" height="60" viewBox="0 0 60 60" fill="none" xmlns="http://www.w3.org/2000/svg">
<path fill-rule="evenodd" clip-rule="evenodd" d="M28.6787 0.0538355C20.6578 0.58739 14.28 3.39207 8.87763 8.76128C-5.42694 22.9781 -1.96574 46.7858 15.8125 56.4612C22.6481 60.1814 31.2503 61.0277 38.7573 58.7184C59.3322 52.3892 66.7644 27.2859 52.9694 10.7146C47.1337 3.70448 37.481 -0.531938 28.6787 0.0538355ZM31.4207 2.06447C54.2066 3.30155 66.0932 29.8086 51.8212 47.5577C38.2732 64.4066 11.3876 60.1006 3.79762 39.8661C-3.26283 21.0437 11.4002 0.977457 31.4207 2.06447ZM28.5883 6.66417C28.4558 6.67719 28.0355 6.71714 27.6542 6.7529C23.7677 7.11738 18.2177 9.19594 17.8926 10.4086C17.6898 11.1641 18.2306 11.8562 19.0232 11.8562C19.2947 11.8562 19.4564 11.7928 20.3151 11.3496C22.8849 10.0228 26.4863 9.00098 28.6935 8.97255C28.7181 8.97225 28.7452 18.8079 28.7536 30.8296L28.7691 52.6871L28.8929 52.8972C29.2836 53.5606 30.453 53.5839 30.933 52.938L31.0591 52.7685L31.0744 30.8625L31.0897 8.95654L31.6469 8.99814C34.5913 9.21793 37.7617 10.1565 40.2014 11.5308C41.5689 12.3009 42.8196 11.5449 42.2755 10.277C41.8918 9.38267 37.5907 7.60575 34.4037 7.02506C32.766 6.72656 29.8175 6.54357 28.5883 6.66417ZM24.0458 14.7375C23.8049 14.798 23.5809 14.9554 23.4094 15.1843C23.2859 15.3493 23.285 15.389 23.2691 22.106L23.253 28.8616H16.1864H9.11997L9.16498 28.2458C9.45294 24.3077 11.0431 20.1036 13.4143 17.0103C14.0516 16.179 13.9782 15.3463 13.2362 14.9883C12.6223 14.6919 12.1064 14.8704 11.5815 15.5606C8.60137 19.4795 6.86207 24.5062 6.79214 29.4025C6.77579 30.5401 6.84661 30.7718 7.28538 31.0178L7.51241 31.145H15.3838H23.255V40.5231V49.901L23.1193 49.8601C20.1071 48.9509 16.4171 46.4116 13.9321 43.538C13.5532 43.0997 13.1695 42.7032 13.0793 42.6568C12.2881 42.2488 11.3831 42.8012 11.3831 43.6924C11.3831 44.856 15.385 48.5597 18.5944 50.3663C20.6588 51.5284 23.8255 52.7065 24.5303 52.5747C24.959 52.4945 25.4033 52.0563 25.5433 51.5754C25.6262 51.291 25.6293 15.6945 25.5465 15.4066C25.3955 14.8818 24.702 14.5725 24.0458 14.7375ZM47.1067 14.8001C46.5637 14.9633 46.7703 14.5355 43.9204 21.3936C42.6814 24.3753 41.6489 26.7953 41.6258 26.7717C41.6026 26.7479 40.5263 24.2948 39.234 21.3203C36.5244 15.0837 36.575 15.1894 36.2146 14.9994C35.6637 14.7089 34.8581 14.8714 34.5718 15.3308L34.4339 15.5518L34.4184 33.5801L34.4029 51.6085L34.5389 51.8769C34.9128 52.615 36.1786 52.6512 36.6001 51.9358C36.7239 51.7258 36.7239 51.7231 36.754 36.6302L36.7842 21.5347L38.5858 25.6939C40.8407 30.8993 40.687 30.5733 40.9724 30.7615C41.4895 31.1028 42.2251 30.9776 42.6029 30.484C42.6915 30.3683 43.8695 27.6103 45.221 24.355C46.5722 21.0996 47.696 18.4157 47.7183 18.3907C47.8066 18.2917 48.8976 20.3533 49.3918 21.553C52.2781 28.5598 51.3458 36.3478 46.8729 42.5935C46.0875 43.6903 46.0266 44.1164 46.577 44.6652C47.1826 45.2689 47.8953 45.1241 48.5492 44.2642C54.4182 36.5464 54.9535 25.7266 49.8798 17.3652C48.4844 15.0656 47.9298 14.5526 47.1067 14.8001Z" fill="white"/>
</svg>
