<svg width="266" height="62" viewBox="0 0 266 62" fill="none" xmlns="http://www.w3.org/2000/svg">
<path fill-rule="evenodd" clip-rule="evenodd" d="M28.6787 0.0538355C20.6578 0.58739 14.28 3.39207 8.87763 8.76128C-5.42694 22.9781 -1.96574 46.7858 15.8125 56.4612C22.6481 60.1814 31.2503 61.0277 38.7573 58.7184C59.3322 52.3892 66.7644 27.2859 52.9694 10.7146C47.1337 3.70448 37.481 -0.531938 28.6787 0.0538355ZM31.4207 2.06447C54.2066 3.30155 66.0932 29.8086 51.8212 47.5577C38.2732 64.4066 11.3876 60.1006 3.79762 39.8661C-3.26283 21.0437 11.4002 0.977457 31.4207 2.06447ZM28.5883 6.66417C28.4558 6.67719 28.0355 6.71714 27.6542 6.7529C23.7677 7.11738 18.2177 9.19594 17.8926 10.4086C17.6898 11.1641 18.2306 11.8562 19.0232 11.8562C19.2947 11.8562 19.4564 11.7928 20.3151 11.3496C22.8849 10.0228 26.4863 9.00098 28.6935 8.97255C28.7181 8.97225 28.7452 18.8079 28.7536 30.8296L28.7691 52.6871L28.8929 52.8972C29.2836 53.5606 30.453 53.5839 30.933 52.938L31.0591 52.7685L31.0744 30.8625L31.0897 8.95654L31.6469 8.99814C34.5913 9.21793 37.7617 10.1565 40.2014 11.5308C41.5689 12.3009 42.8196 11.5449 42.2755 10.277C41.8918 9.38267 37.5907 7.60575 34.4037 7.02506C32.766 6.72656 29.8175 6.54357 28.5883 6.66417ZM24.0458 14.7375C23.8049 14.798 23.5809 14.9554 23.4094 15.1843C23.2859 15.3493 23.285 15.389 23.2691 22.106L23.253 28.8616H16.1864H9.11997L9.16498 28.2458C9.45294 24.3077 11.0431 20.1036 13.4143 17.0103C14.0516 16.179 13.9782 15.3463 13.2362 14.9883C12.6223 14.6919 12.1064 14.8704 11.5815 15.5606C8.60137 19.4795 6.86207 24.5062 6.79214 29.4025C6.77579 30.5401 6.84661 30.7718 7.28538 31.0178L7.51241 31.145H15.3838H23.255V40.5231V49.901L23.1193 49.8601C20.1071 48.9509 16.4171 46.4116 13.9321 43.538C13.5532 43.0997 13.1695 42.7032 13.0793 42.6568C12.2881 42.2488 11.3831 42.8012 11.3831 43.6924C11.3831 44.856 15.385 48.5597 18.5944 50.3663C20.6588 51.5284 23.8255 52.7065 24.5303 52.5747C24.959 52.4945 25.4033 52.0563 25.5433 51.5754C25.6262 51.291 25.6293 15.6945 25.5465 15.4066C25.3955 14.8818 24.702 14.5725 24.0458 14.7375ZM47.1067 14.8001C46.5637 14.9633 46.7703 14.5355 43.9204 21.3936C42.6814 24.3753 41.6489 26.7953 41.6258 26.7717C41.6026 26.7479 40.5263 24.2948 39.234 21.3203C36.5244 15.0837 36.575 15.1894 36.2146 14.9994C35.6637 14.7089 34.8581 14.8714 34.5718 15.3308L34.4339 15.5518L34.4184 33.5801L34.4029 51.6085L34.5389 51.8769C34.9128 52.615 36.1786 52.6512 36.6001 51.9358C36.7239 51.7258 36.7239 51.7231 36.754 36.6302L36.7842 21.5347L38.5858 25.6939C40.8407 30.8993 40.687 30.5733 40.9724 30.7615C41.4895 31.1028 42.2251 30.9776 42.6029 30.484C42.6915 30.3683 43.8695 27.6103 45.221 24.355C46.5722 21.0996 47.696 18.4157 47.7183 18.3907C47.8066 18.2917 48.8976 20.3533 49.3918 21.553C52.2781 28.5598 51.3458 36.3478 46.8729 42.5935C46.0875 43.6903 46.0266 44.1164 46.577 44.6652C47.1826 45.2689 47.8953 45.1241 48.5492 44.2642C54.4182 36.5464 54.9535 25.7266 49.8798 17.3652C48.4844 15.0656 47.9298 14.5526 47.1067 14.8001Z" fill="white"/>
<path d="M76.418 25.127C76.1445 25.127 75.8841 25.1107 75.6367 25.0781C75.3893 25.0456 75.2428 25.013 75.1973 24.9805V22.5781C75.3926 22.6367 75.679 22.666 76.0566 22.666C76.5059 22.666 76.89 22.5879 77.209 22.4316C77.528 22.2754 77.8079 22.0117 78.0488 21.6406L73.3711 10.9082H76.4961L79.5723 18.7402H79.6895L82.6191 10.9082H85.7246L81.4082 20.9668C80.7702 22.4512 80.0833 23.5156 79.3477 24.1602C78.612 24.8047 77.6354 25.127 76.418 25.127ZM93.0391 17.5781L99.3379 25H95.6562L90.3438 18.8086H90.2656V25H87.3164V10.9082H90.2656V16.875H90.3438L95.5488 10.9082H98.8789L93.0391 17.5781ZM100.793 10.9082H106.525C107.977 10.9082 109.152 11.3509 110.051 12.2363C110.956 13.1217 111.408 14.2871 111.408 15.7324C111.408 17.1712 110.943 18.3366 110.012 19.2285C109.081 20.1139 107.87 20.5566 106.379 20.5566H103.742V25H100.793V10.9082ZM103.742 13.2422V18.252H105.734C106.581 18.252 107.238 18.0339 107.707 17.5977C108.176 17.1615 108.41 16.543 108.41 15.7422C108.41 14.9414 108.176 14.3262 107.707 13.8965C107.245 13.4603 106.59 13.2422 105.744 13.2422H103.742ZM119.611 25H116.662V13.3398H112.59V10.9082H123.693V13.3398H119.611V25ZM125.52 10.9082H131.252C132.704 10.9082 133.879 11.3509 134.777 12.2363C135.682 13.1217 136.135 14.2871 136.135 15.7324C136.135 17.1712 135.669 18.3366 134.738 19.2285C133.807 20.1139 132.596 20.5566 131.105 20.5566H128.469V25H125.52V10.9082ZM128.469 13.2422V18.252H130.461C131.307 18.252 131.965 18.0339 132.434 17.5977C132.902 17.1615 133.137 16.543 133.137 15.7422C133.137 14.9414 132.902 14.3262 132.434 13.8965C131.971 13.4603 131.317 13.2422 130.471 13.2422H128.469ZM146.135 25L145.061 21.582H140.109L139.035 25H136.008L140.9 10.9082H144.367L149.27 25H146.135ZM142.551 13.6035L140.744 19.375H144.426L142.619 13.6035H142.551ZM163.156 25H160.207V19.0625H153.859V25H150.91V10.9082H153.859V16.6309H160.207V10.9082H163.156V25ZM171.926 25.3125C169.875 25.3125 168.251 24.6549 167.053 23.3398C165.855 22.0182 165.256 20.2214 165.256 17.9492C165.256 15.6836 165.855 13.8932 167.053 12.5781C168.257 11.2565 169.882 10.5957 171.926 10.5957C173.566 10.5957 174.956 11.0677 176.096 12.0117C177.242 12.9492 177.909 14.1667 178.098 15.6641H175.197C175.008 14.8893 174.618 14.2708 174.025 13.8086C173.433 13.3398 172.733 13.1055 171.926 13.1055C170.812 13.1055 169.924 13.5417 169.26 14.4141C168.596 15.2865 168.264 16.4616 168.264 17.9395C168.264 19.4434 168.592 20.6315 169.25 21.5039C169.908 22.3698 170.803 22.8027 171.936 22.8027C172.756 22.8027 173.452 22.5911 174.025 22.168C174.605 21.7383 174.999 21.1458 175.207 20.3906H178.107C177.88 21.901 177.209 23.099 176.096 23.9844C174.989 24.8698 173.599 25.3125 171.926 25.3125ZM195.051 25H192.424V15.4883H192.346L188.518 24.8633H186.662L182.834 15.4883H182.756V25H180.129V10.9082H183.547L187.551 20.8984H187.629L191.633 10.9082H195.051V25ZM206.818 25L205.744 21.582H200.793L199.719 25H196.691L201.584 10.9082H205.051L209.953 25H206.818ZM203.234 13.6035L201.428 19.375H205.109L203.303 13.6035H203.234ZM211.594 25V10.9082H214.543V22.5684H218.547V10.9082H221.496V22.5684H225.5V10.9082H228.449V25H211.594Z" fill="white"/>
<path d="M80.6289 43H79.5742V39.1504H74.9336V43H73.8789V34.5449H74.9336V38.2012H79.5742V34.5449H80.6289V43ZM87.8828 43L87.0332 40.5801H83.6699L82.8203 43H81.7129L84.8301 34.5449H85.873L88.9902 43H87.8828ZM85.334 35.8281L83.9805 39.6836H86.7227L85.3691 35.8281H85.334ZM90.5547 43.0586C90.3438 43.0586 90.1875 43.0332 90.0859 42.9824V42.0332C90.2109 42.0645 90.3672 42.0801 90.5547 42.0801C90.8711 42.0801 91.1387 42.0098 91.3574 41.8691C91.5762 41.7285 91.7695 41.5039 91.9375 41.1953L89.0488 34.5449H90.1738L92.4414 40.0234H92.5352L94.75 34.5449H95.8457L93.2559 40.5801C92.8535 41.5176 92.457 42.166 92.0664 42.5254C91.6797 42.8809 91.1758 43.0586 90.5547 43.0586ZM99.0859 38.5879L103.322 43H101.875L97.9727 38.8926H97.9258V43H96.8711V34.5449H97.9258V38.4414H97.9727L101.605 34.5449H102.93L99.0859 38.5879ZM104.705 35.582C105.404 34.7969 106.354 34.4043 107.553 34.4043C108.752 34.4043 109.701 34.7969 110.4 35.582C111.1 36.3672 111.449 37.4316 111.449 38.7754C111.449 40.1191 111.1 41.1836 110.4 41.9688C109.701 42.75 108.752 43.1406 107.553 43.1406C106.354 43.1406 105.404 42.75 104.705 41.9688C104.006 41.1836 103.656 40.1191 103.656 38.7754C103.656 37.4316 104.006 36.3672 104.705 35.582ZM109.604 36.2969C109.1 35.6836 108.416 35.377 107.553 35.377C106.689 35.377 106.004 35.6836 105.496 36.2969C104.992 36.9062 104.74 37.7324 104.74 38.7754C104.74 39.8145 104.992 40.6406 105.496 41.2539C106.004 41.8633 106.689 42.168 107.553 42.168C108.416 42.168 109.1 41.8633 109.604 41.2539C110.111 40.6406 110.365 39.8145 110.365 38.7754C110.365 37.7324 110.111 36.9062 109.604 36.2969ZM116.072 43H112.879V34.5449H116.084C116.807 34.5449 117.391 34.7383 117.836 35.125C118.285 35.5117 118.51 36.0215 118.51 36.6543C118.51 37.0957 118.367 37.4961 118.082 37.8555C117.801 38.2109 117.457 38.4258 117.051 38.5V38.5469C117.625 38.6211 118.082 38.8457 118.422 39.2207C118.766 39.5957 118.938 40.0645 118.938 40.627C118.938 41.373 118.684 41.9551 118.176 42.373C117.672 42.791 116.971 43 116.072 43ZM113.934 35.4766V38.1895H115.516C116.141 38.1895 116.617 38.0684 116.945 37.8262C117.277 37.584 117.443 37.2344 117.443 36.7773C117.443 36.3594 117.305 36.0391 117.027 35.8164C116.75 35.5898 116.355 35.4766 115.844 35.4766H113.934ZM113.934 42.0684H115.914C116.551 42.0684 117.033 41.9414 117.361 41.6875C117.689 41.4336 117.854 41.0625 117.854 40.5742C117.854 39.5898 117.174 39.0977 115.814 39.0977H113.934V42.0684ZM120.971 35.582C121.67 34.7969 122.619 34.4043 123.818 34.4043C125.018 34.4043 125.967 34.7969 126.666 35.582C127.365 36.3672 127.715 37.4316 127.715 38.7754C127.715 40.1191 127.365 41.1836 126.666 41.9688C125.967 42.75 125.018 43.1406 123.818 43.1406C122.619 43.1406 121.67 42.75 120.971 41.9688C120.271 41.1836 119.922 40.1191 119.922 38.7754C119.922 37.4316 120.271 36.3672 120.971 35.582ZM125.869 36.2969C125.365 35.6836 124.682 35.377 123.818 35.377C122.955 35.377 122.27 35.6836 121.762 36.2969C121.258 36.9062 121.006 37.7324 121.006 38.7754C121.006 39.8145 121.258 40.6406 121.762 41.2539C122.27 41.8633 122.955 42.168 123.818 42.168C124.682 42.168 125.365 41.8633 125.869 41.2539C126.377 40.6406 126.631 39.8145 126.631 38.7754C126.631 37.7324 126.377 36.9062 125.869 36.2969ZM132.76 40.0469H128.916V39.0977H132.76V40.0469ZM137.482 43H134.289V34.5449H137.494C138.217 34.5449 138.801 34.7383 139.246 35.125C139.695 35.5117 139.92 36.0215 139.92 36.6543C139.92 37.0957 139.777 37.4961 139.492 37.8555C139.211 38.2109 138.867 38.4258 138.461 38.5V38.5469C139.035 38.6211 139.492 38.8457 139.832 39.2207C140.176 39.5957 140.348 40.0645 140.348 40.627C140.348 41.373 140.094 41.9551 139.586 42.373C139.082 42.791 138.381 43 137.482 43ZM135.344 35.4766V38.1895H136.926C137.551 38.1895 138.027 38.0684 138.355 37.8262C138.688 37.584 138.854 37.2344 138.854 36.7773C138.854 36.3594 138.715 36.0391 138.438 35.8164C138.16 35.5898 137.766 35.4766 137.254 35.4766H135.344ZM135.344 42.0684H137.324C137.961 42.0684 138.443 41.9414 138.771 41.6875C139.1 41.4336 139.264 41.0625 139.264 40.5742C139.264 39.5898 138.584 39.0977 137.225 39.0977H135.344V42.0684ZM147.367 43V36.2734H147.273L142.703 43H141.66V34.5449H142.703V41.2949H142.797L147.367 34.5449H148.41V43H147.367ZM150.168 34.5449H153.186C153.979 34.5449 154.627 34.7988 155.131 35.3066C155.639 35.8105 155.893 36.4609 155.893 37.2578C155.893 38.0586 155.639 38.7129 155.131 39.2207C154.623 39.7285 153.971 39.9824 153.174 39.9824H151.223V43H150.168V34.5449ZM151.223 35.4824V39.0449H152.91C153.512 39.0449 153.979 38.8887 154.311 38.5762C154.643 38.2598 154.809 37.8203 154.809 37.2578C154.809 36.6953 154.643 36.2598 154.311 35.9512C153.982 35.6387 153.516 35.4824 152.91 35.4824H151.223ZM157.932 35.582C158.631 34.7969 159.58 34.4043 160.779 34.4043C161.979 34.4043 162.928 34.7969 163.627 35.582C164.326 36.3672 164.676 37.4316 164.676 38.7754C164.676 40.1191 164.326 41.1836 163.627 41.9688C162.928 42.75 161.979 43.1406 160.779 43.1406C159.58 43.1406 158.631 42.75 157.932 41.9688C157.232 41.1836 156.883 40.1191 156.883 38.7754C156.883 37.4316 157.232 36.3672 157.932 35.582ZM162.83 36.2969C162.326 35.6836 161.643 35.377 160.779 35.377C159.916 35.377 159.23 35.6836 158.723 36.2969C158.219 36.9062 157.967 37.7324 157.967 38.7754C157.967 39.8145 158.219 40.6406 158.723 41.2539C159.23 41.8633 159.916 42.168 160.779 42.168C161.643 42.168 162.326 41.8633 162.83 41.2539C163.338 40.6406 163.592 39.8145 163.592 38.7754C163.592 37.7324 163.338 36.9062 162.83 36.2969ZM171.889 40.4629C171.889 41.209 171.635 41.8184 171.127 42.291C170.623 42.7637 169.975 43 169.182 43H166.105V34.5449H171.045V35.4941H167.16V37.9141H169.17C169.967 37.9141 170.619 38.1523 171.127 38.6289C171.635 39.1016 171.889 39.7129 171.889 40.4629ZM167.16 42.0508H168.906C169.512 42.0508 169.979 41.9141 170.307 41.6406C170.639 41.3633 170.805 40.9707 170.805 40.4629C170.805 39.9512 170.639 39.5566 170.307 39.2793C169.979 39.002 169.512 38.8633 168.906 38.8633H167.16V42.0508ZM180.227 43H179.172V39.1504H174.531V43H173.477V34.5449H174.531V38.2012H179.172V34.5449H180.227V43ZM187.691 43V36.2734H187.598L183.027 43H181.984V34.5449H183.027V41.2949H183.121L187.691 34.5449H188.734V43H187.691ZM196.744 43H195.689V39.2031H195.596C195.041 39.6406 194.367 39.8594 193.574 39.8594C193.055 39.8594 192.588 39.7793 192.174 39.6191C191.76 39.459 191.42 39.2383 191.154 38.957C190.893 38.6719 190.691 38.3438 190.551 37.9727C190.414 37.5977 190.346 37.1914 190.346 36.7539V34.5449H191.4V36.7598C191.4 37.4199 191.588 37.9395 191.963 38.3184C192.342 38.6973 192.879 38.8867 193.574 38.8867C194.012 38.8867 194.414 38.8145 194.781 38.6699C195.148 38.5215 195.451 38.3281 195.689 38.0898V34.5449H196.744V43ZM203.746 42.0508V43H198.508V34.5449H203.746V35.4941H199.562V38.207H203.529V39.1445H199.562V42.0508H203.746ZM80.5059 57H79.4629V49.5059H74.9395V57H73.8789V48.5449H80.5059V57ZM83.3242 57H82.2695V48.5449H83.3242V57ZM86.9043 53.8887C86.873 54.4121 86.8145 54.8359 86.7285 55.1602C86.6465 55.4844 86.5078 55.7656 86.3125 56.0039V56.0508H90.4141V49.4941H87.1797L86.9043 53.8887ZM85.3574 57V58.6699H84.3789V56.0508H85.0059C85.2988 55.8945 85.5137 55.6387 85.6504 55.2832C85.791 54.9238 85.8789 54.4512 85.9141 53.8652L86.2363 48.5449H91.4688V56.0508H92.5234V58.6699H91.5449V57H85.3574ZM100.381 57H99.3379V49.5059H94.8145V57H93.7539V48.5449H100.381V57ZM102.145 48.5449H105.162C105.955 48.5449 106.604 48.7988 107.107 49.3066C107.615 49.8105 107.869 50.4609 107.869 51.2578C107.869 52.0586 107.615 52.7129 107.107 53.2207C106.6 53.7285 105.947 53.9824 105.15 53.9824H103.199V57H102.145V48.5449ZM103.199 49.4824V53.0449H104.887C105.488 53.0449 105.955 52.8887 106.287 52.5762C106.619 52.2598 106.785 51.8203 106.785 51.2578C106.785 50.6953 106.619 50.2598 106.287 49.9512C105.959 49.6387 105.492 49.4824 104.887 49.4824H103.199ZM114.895 57V50.2734H114.801L110.23 57H109.188V48.5449H110.23V55.2949H110.324L114.895 48.5449H115.938V57H114.895ZM124.662 54.6445C124.455 55.4492 124.051 56.0664 123.449 56.4961C122.848 56.9258 122.09 57.1406 121.176 57.1406C120.008 57.1406 119.08 56.748 118.393 55.9629C117.709 55.1738 117.367 54.1094 117.367 52.7695C117.367 51.4414 117.713 50.3828 118.404 49.5938C119.096 48.8008 120.02 48.4043 121.176 48.4043C122.074 48.4043 122.84 48.6504 123.473 49.1426C124.109 49.6309 124.506 50.2812 124.662 51.0938H123.584C123.432 50.5703 123.137 50.1543 122.699 49.8457C122.262 49.5332 121.754 49.377 121.176 49.377C120.426 49.377 119.805 49.6328 119.312 50.1445C118.82 50.6562 118.543 51.3418 118.48 52.2012H122.23V53.1504H118.463C118.498 54.0723 118.764 54.8066 119.26 55.3535C119.756 55.8965 120.396 56.168 121.182 56.168C121.779 56.168 122.287 56.0352 122.705 55.7695C123.123 55.5039 123.416 55.1289 123.584 54.6445H124.662ZM134.359 57H133.375V50.4844H133.334L130.639 56.9414H129.748L127.053 50.4844H127.012V57H126.027V48.5449H127.252L130.17 55.5996H130.217L133.135 48.5449H134.359V57ZM139.598 57.1406C138.43 57.1406 137.502 56.748 136.814 55.9629C136.131 55.1738 135.789 54.1094 135.789 52.7695C135.789 51.4414 136.135 50.3828 136.826 49.5938C137.518 48.8008 138.441 48.4043 139.598 48.4043C140.496 48.4043 141.262 48.6504 141.895 49.1426C142.531 49.6309 142.928 50.2812 143.084 51.0938H142.006C141.854 50.5703 141.559 50.1543 141.121 49.8457C140.684 49.5332 140.176 49.377 139.598 49.377C138.773 49.377 138.113 49.6855 137.617 50.3027C137.121 50.9199 136.873 51.7422 136.873 52.7695C136.873 53.8086 137.119 54.6348 137.611 55.248C138.104 55.8613 138.768 56.168 139.604 56.168C140.201 56.168 140.709 56.0352 141.127 55.7695C141.545 55.5039 141.838 55.1289 142.006 54.6445H143.084C142.877 55.4492 142.473 56.0664 141.871 56.4961C141.27 56.9258 140.512 57.1406 139.598 57.1406ZM147.057 57H146.002V49.4941H143.336V48.5449H149.723V49.4941H147.057V57ZM154.146 57H150.953V48.5449H154.158C154.881 48.5449 155.465 48.7383 155.91 49.125C156.359 49.5117 156.584 50.0215 156.584 50.6543C156.584 51.0957 156.441 51.4961 156.156 51.8555C155.875 52.2109 155.531 52.4258 155.125 52.5V52.5469C155.699 52.6211 156.156 52.8457 156.496 53.2207C156.84 53.5957 157.012 54.0645 157.012 54.627C157.012 55.373 156.758 55.9551 156.25 56.373C155.746 56.791 155.045 57 154.146 57ZM152.008 49.4766V52.1895H153.59C154.215 52.1895 154.691 52.0684 155.02 51.8262C155.352 51.584 155.518 51.2344 155.518 50.7773C155.518 50.3594 155.379 50.0391 155.102 49.8164C154.824 49.5898 154.43 49.4766 153.918 49.4766H152.008ZM152.008 56.0684H153.988C154.625 56.0684 155.107 55.9414 155.436 55.6875C155.764 55.4336 155.928 55.0625 155.928 54.5742C155.928 53.5898 155.248 53.0977 153.889 53.0977H152.008V56.0684ZM159.045 49.582C159.744 48.7969 160.693 48.4043 161.893 48.4043C163.092 48.4043 164.041 48.7969 164.74 49.582C165.439 50.3672 165.789 51.4316 165.789 52.7754C165.789 54.1191 165.439 55.1836 164.74 55.9688C164.041 56.75 163.092 57.1406 161.893 57.1406C160.693 57.1406 159.744 56.75 159.045 55.9688C158.346 55.1836 157.996 54.1191 157.996 52.7754C157.996 51.4316 158.346 50.3672 159.045 49.582ZM163.943 50.2969C163.439 49.6836 162.756 49.377 161.893 49.377C161.029 49.377 160.344 49.6836 159.836 50.2969C159.332 50.9062 159.08 51.7324 159.08 52.7754C159.08 53.8145 159.332 54.6406 159.836 55.2539C160.344 55.8633 161.029 56.168 161.893 56.168C162.756 56.168 163.439 55.8633 163.943 55.2539C164.451 54.6406 164.705 53.8145 164.705 52.7754C164.705 51.7324 164.451 50.9062 163.943 50.2969Z" fill="#ABABAB"/>
</svg>
